<svg xmlns="http://www.w3.org/2000/svg" width="512" height="512" viewBox="0 0 512 512" version="1.1">
	<path d="M 232.623 101.540 C 231.568 104.289, 231.932 115.840, 233.096 116.559 C 233.699 116.932, 234.881 116.547, 235.724 115.705 C 236.985 114.443, 237.101 112.981, 236.378 107.415 C 235.523 100.831, 233.881 98.262, 232.623 101.540 M 266.580 103.462 C 265.785 105.366, 264.828 108.966, 264.453 111.462 C 263.844 115.525, 263.977 116, 265.719 116 C 267.289 116, 267.976 114.725, 269.266 109.408 C 270.822 103.001, 270.707 100, 268.906 100 C 268.423 100, 267.376 101.558, 266.580 103.462 M 193.552 112.916 C 192.189 115.122, 198.711 125, 201.530 125 C 204.221 125, 203.825 123.253, 199.870 117.678 C 195.886 112.063, 194.654 111.134, 193.552 112.916 M 302.448 117.180 C 297.075 121.897, 294.015 129, 297.355 129 C 299.130 129, 309 118.547, 309 116.667 C 309 113.826, 306 114.061, 302.448 117.180 M 161 146.390 C 161 148.379, 166.637 151.991, 169.750 151.996 C 175.107 152.005, 170.628 146.676, 164.198 145.390 C 161.641 144.878, 161 145.079, 161 146.390 M 325.844 150.255 C 322.737 152.882, 320.628 156.652, 321.845 157.404 C 323.061 158.156, 333 150.986, 333 149.358 C 333 147.242, 328.784 147.770, 325.844 150.255 M 266.942 164.948 C 260.466 166.913, 251.109 174.905, 247.885 181.225 C 246.826 183.301, 245.753 185, 245.500 185 C 245.248 185, 243.249 183.056, 241.059 180.680 C 238.869 178.304, 234.697 175.044, 231.788 173.437 C 227.347 170.982, 225.365 170.512, 219.415 170.507 C 213.282 170.501, 211.787 170.875, 208.301 173.292 C 206.003 174.884, 203.046 178.321, 201.416 181.292 C 198.981 185.732, 198.563 187.605, 198.584 194 C 198.628 207.315, 204.643 215.547, 226.907 232.763 C 233.833 238.118, 241.003 243.988, 242.841 245.808 C 244.748 247.696, 246.978 248.983, 248.038 248.808 C 251.067 248.306, 271.781 230.134, 279.146 221.518 C 293.407 204.834, 296.912 191.820, 290.866 178 C 286.100 167.105, 276.712 161.983, 266.942 164.948 M 265 173.201 C 262.525 174.410, 256.819 179.135, 252.321 183.700 C 245.094 191.034, 241.760 193.816, 243.425 191.122 C 244.128 189.983, 235.292 181.720, 230.995 179.497 C 229.169 178.553, 225.161 177.577, 222.088 177.327 C 215.039 176.755, 210.729 179.179, 207.964 185.271 C 202.273 197.806, 207.854 208.076, 229.381 224.683 C 235.497 229.400, 241.850 234.528, 243.500 236.078 L 246.500 238.895 252 234.381 C 260.849 227.117, 275.866 211.880, 279.026 206.957 C 285.293 197.196, 286.705 187.154, 282.913 179.320 C 278.870 170.969, 273.394 169.099, 265 173.201 M 147.750 179.689 C 146.787 179.941, 146 180.993, 146 182.028 C 146 183.916, 148.035 184.605, 155.500 185.243 C 157.921 185.450, 158.560 185.078, 158.811 183.314 C 159.065 181.534, 158.414 180.931, 155.311 180.069 C 151.342 178.967, 150.647 178.932, 147.750 179.689 M 341 182.999 C 336.317 183.846, 333 186.065, 333 188.349 C 333 190.513, 334.932 190.244, 342.407 187.040 C 349.102 184.170, 348.238 181.690, 341 182.999 M 330.459 219.067 C 330.096 219.653, 330.058 220.391, 330.373 220.706 C 331.372 221.705, 341.226 223.978, 342.132 223.419 C 343.647 222.482, 343.070 220.108, 341.066 219.035 C 338.534 217.680, 331.302 217.702, 330.459 219.067 M 157.328 224.938 C 152.597 227.086, 149.080 231.480, 150.753 233.153 C 153.541 235.941, 166.102 228.313, 164.707 224.679 C 163.887 222.541, 162.499 222.590, 157.328 224.938 M 320.104 246.931 C 317.537 248.526, 319.762 250.670, 325.724 252.342 C 333.512 254.528, 337.250 254.529, 336.823 252.347 C 336.172 249.014, 323.406 244.879, 320.104 246.931 M 176.923 261.923 C 173.587 265.259, 173.371 266.233, 175.561 268.050 C 176.886 269.150, 177.661 268.805, 180.703 265.764 C 183.012 263.454, 184.067 261.618, 183.673 260.591 C 182.745 258.171, 180.166 258.680, 176.923 261.923 M 303 271.927 C 303 272.437, 304.688 274.252, 306.750 275.961 C 312.965 281.110, 318.645 281.459, 313.921 276.401 C 309.993 272.197, 303 269.332, 303 271.927 M 205.449 286.468 C 203.561 290.988, 203.566 295, 205.461 295 C 207.005 295, 210.403 285.461, 209.424 283.877 C 208.337 282.119, 206.865 283.078, 205.449 286.468 M 272.709 287.624 C 271.247 289.087, 272.032 295.817, 273.935 298.139 C 275.648 300.228, 276.036 300.327, 277.306 299 C 278.357 297.902, 278.575 296.160, 278.121 292.500 C 277.621 288.478, 277.101 287.443, 275.459 287.208 C 274.336 287.047, 273.099 287.235, 272.709 287.624 M 238.377 292.461 C 237.577 294.546, 238.613 301.013, 239.964 302.364 C 242.070 304.470, 243.297 301.437, 242.372 296.410 C 241.477 291.539, 239.486 289.571, 238.377 292.461 M 173 332.323 C 159.819 336.101, 151.971 343.774, 157.991 346.995 C 160.287 348.224, 164.259 346.582, 167.407 343.102 C 169.798 340.461, 168.992 340.453, 163.863 343.070 C 161.632 344.208, 159.584 344.917, 159.311 344.645 C 158.427 343.760, 166.680 338.901, 171.562 337.431 C 176.911 335.821, 187.578 335.508, 188.460 336.935 C 189.185 338.109, 183.581 342.441, 178.696 344.482 C 174.219 346.353, 173.984 345.348, 178 341.500 C 179.650 339.919, 181 338.260, 181 337.813 C 181 335.715, 178.184 337.583, 171.297 344.250 C 162.785 352.490, 158.515 358.898, 159.490 361.969 C 160.302 364.528, 161.681 364.580, 162.474 362.081 C 163.030 360.330, 163.320 360.285, 165.792 361.575 C 167.281 362.352, 168.821 362.990, 169.212 362.994 C 171.392 363.013, 181.462 358.482, 184.016 356.333 C 187.314 353.558, 188.039 349.107, 185.531 347.026 C 184.276 345.984, 184.568 345.330, 187.531 342.535 C 191.615 338.684, 191.728 337.941, 188.750 334.548 C 185.972 331.383, 179.478 330.465, 173 332.323 M 309.362 334.018 C 307.636 335.138, 302.330 340.704, 297.572 346.386 L 288.920 356.718 282.370 357.803 C 272.021 359.518, 267.510 363.565, 271.944 367.156 C 275.053 369.673, 276.683 369.499, 283.942 365.871 C 289.973 362.857, 290.565 362.760, 300.065 363.217 C 305.490 363.478, 309.714 363.346, 309.452 362.923 C 309.191 362.499, 310.332 361.188, 311.988 360.008 C 314.960 357.893, 315 357.891, 315 359.873 C 315 363.148, 316.499 363.146, 321.027 359.866 C 323.379 358.162, 325.069 357.383, 324.783 358.134 C 323.909 360.430, 325.800 364, 327.891 364 C 328.967 364, 331.831 362.486, 334.255 360.635 L 338.663 357.270 339.745 360.135 C 341.163 363.892, 343.649 363.837, 351.064 359.885 C 357.232 356.598, 365 350.482, 365 348.914 C 365 348.403, 362.413 349.733, 359.250 351.871 C 351.791 356.912, 347.608 359, 344.966 359 C 341.682 359, 343.124 356.943, 347.452 355.456 C 349.587 354.722, 352.460 352.995, 353.837 351.618 C 355.941 349.513, 356.134 348.866, 355.048 347.557 C 352.856 344.917, 350.568 345.748, 339.598 353.167 C 333.769 357.109, 328.714 360.048, 328.365 359.698 C 327.495 358.829, 330.238 354.824, 335.287 349.592 C 339.283 345.449, 339.874 345.187, 346.750 344.511 C 350.738 344.118, 354 343.441, 354 343.005 C 354 341.874, 351.320 341, 347.851 341 C 345.320 341, 344.962 340.695, 345.500 339 C 346.357 336.301, 342.486 336.223, 341.048 338.910 C 340.050 340.776, 338.981 341.069, 327.580 342.612 C 323.122 343.216, 322.835 343.406, 324.521 344.639 C 325.545 345.388, 328.166 346, 330.346 346 C 334.220 346, 334.270 346.045, 332.536 347.960 C 330.112 350.638, 320.116 357.450, 319.506 356.839 C 319.234 356.568, 320.616 354.472, 322.575 352.183 L 326.139 348.020 323.579 346.854 C 319.972 345.211, 314.026 348.066, 308.676 354.011 C 304.578 358.564, 304.410 358.641, 299.695 358.076 L 294.890 357.500 299.195 351.901 C 302.603 347.469, 304.384 346.063, 307.740 345.158 C 313.113 343.707, 320.212 337.486, 319.799 334.590 C 319.375 331.626, 313.540 331.306, 309.362 334.018 M 309.686 338.927 C 306.845 341.637, 304.755 344.089, 305.042 344.375 C 305.708 345.041, 315.012 337.730, 316.201 335.606 C 317.989 332.411, 314.828 334.023, 309.686 338.927 M 221.707 339.009 C 220.469 340.775, 213.234 342.453, 204.500 343.001 C 201.814 343.169, 207.849 346, 210.894 346 L 214.406 346 210.478 350.023 C 204.184 356.468, 193 361.253, 193 357.500 C 193 356.612, 193.918 355.998, 195.250 355.996 C 198.107 355.992, 203.554 352.702, 204.915 350.159 C 205.701 348.690, 205.597 347.910, 204.492 346.993 C 202.175 345.070, 198.014 346.723, 193.299 351.438 C 188.912 355.825, 187.833 359.433, 190.200 361.800 C 191.937 363.537, 193.847 363.285, 199.750 360.536 C 204.492 358.328, 205 358.262, 205 359.846 C 205 361.861, 206.847 364, 208.588 364 C 209.241 364, 212.061 362.428, 214.854 360.507 C 217.647 358.586, 219.688 357.650, 219.389 358.429 C 218.674 360.292, 220.701 364, 222.435 364 C 223.185 364, 226.069 362.472, 228.844 360.605 C 233.583 357.416, 233.907 357.334, 234.194 359.253 C 235.003 364.654, 242.439 363.276, 252.243 355.910 C 258.595 351.137, 261.253 350.723, 257.589 355.077 C 252.869 360.686, 255.139 364.737, 261.341 361.775 C 265.219 359.922, 276 351.237, 276 349.965 C 276 349.457, 272.834 351.088, 268.964 353.592 C 260.586 359.011, 257.764 358.969, 264.281 353.521 C 269.301 349.325, 269.471 348, 264.988 348 C 263.396 348, 260.977 347.491, 259.611 346.869 C 256.461 345.433, 253.282 346.430, 254.878 348.352 C 255.730 349.380, 255.074 350.409, 251.980 352.896 C 245.415 358.172, 238 360.614, 238 357.500 C 238 356.655, 238.894 356, 240.050 356 C 245.172 356, 252.020 349.934, 249.849 347.318 C 247.639 344.655, 246.032 345.337, 231.027 355.311 C 227.046 357.957, 223.560 359.893, 223.280 359.614 C 222.406 358.739, 226.870 352.351, 230.899 348.710 C 234.270 345.665, 235.648 345.138, 241.877 344.512 C 245.795 344.119, 249 343.441, 249 343.005 C 249 341.826, 246.274 341, 242.383 341 C 239.240 341, 239.026 340.821, 240 339 C 240.905 337.310, 240.760 337, 239.070 337 C 237.970 337, 236.589 337.900, 236 339 C 235.150 340.588, 233.906 341, 229.965 341 C 224.919 341, 224.048 340.352, 226.200 338.200 C 227.133 337.267, 226.924 337, 225.257 337 C 224.078 337, 222.480 337.904, 221.707 339.009 M 214.100 351.581 C 208.580 357.620, 207.267 360.985, 211.250 358.883 C 215.472 356.656, 224.496 350.248, 226.405 348.122 L 228.310 346 223.755 346 C 219.503 346, 218.863 346.370, 214.100 351.581 M 174.319 348.882 C 172.081 349.317, 170.066 350.909, 167.523 354.250 L 163.908 359 166.871 359 C 172.300 359, 185 351.932, 185 348.911 C 185 347.917, 179.363 347.901, 174.319 348.882 M 198.405 351.146 C 196.513 353.276, 196.515 353.283, 198.694 352.140 C 201.125 350.865, 202.622 349, 201.214 349 C 200.717 349, 199.453 349.965, 198.405 351.146 M 243.405 351.146 C 241.513 353.276, 241.515 353.283, 243.694 352.140 C 246.125 350.865, 247.622 349, 246.214 349 C 245.717 349, 244.453 349.965, 243.405 351.146 M 317.500 350.871 C 313.818 353.157, 308.351 358.901, 311.500 357.175 C 313.780 355.924, 321.760 349.093, 321 349.041 C 320.725 349.023, 319.150 349.846, 317.500 350.871 M 347.924 351.678 L 345.500 354.355 348.750 352.109 C 352.030 349.843, 352.687 349, 351.174 349 C 350.720 349, 349.258 350.205, 347.924 351.678 M 275 364.237 C 272.551 365.324, 272.544 365.355, 274.693 365.735 C 275.898 365.949, 278.148 365.439, 279.693 364.602 L 282.500 363.080 280 363.103 C 278.625 363.116, 276.375 363.626, 275 364.237 M 116 392 C 116 394.833, 116.222 395, 120 395 L 124 395 124 407.563 L 124 420.127 127.250 419.813 L 130.500 419.500 130.781 407.250 L 131.062 395 135.031 395 C 138.774 395, 139 394.829, 139 392 L 139 389 127.500 389 L 116 389 116 392 M 146.667 389.667 C 146.300 390.033, 146 397.008, 146 405.167 L 146 420 148.952 420 C 151.875 420, 151.908 419.938, 152.202 413.750 L 152.500 407.500 157.250 407.195 L 162 406.890 162 413.445 L 162 420 165.526 420 L 169.052 420 168.776 404.750 L 168.500 389.500 165.500 389.500 C 162.516 389.500, 162.498 389.533, 162.201 395.803 L 161.902 402.106 157.201 401.803 L 152.500 401.500 152.202 395.250 C 151.928 389.493, 151.724 389, 149.619 389 C 148.362 389, 147.033 389.300, 146.667 389.667 M 180.533 403.222 C 178.040 411.044, 176 418.019, 176 418.722 C 176 419.474, 177.228 420, 178.981 420 C 181.327 420, 182.096 419.467, 182.589 417.500 C 183.162 415.218, 183.690 415, 188.633 415 C 193.490 415, 194.148 415.258, 195 417.500 C 195.725 419.406, 196.669 420, 198.975 420 C 200.639 420, 202 419.504, 202 418.899 C 202 418.293, 199.922 411.318, 197.383 403.399 L 192.766 389 188.916 389 L 185.067 389 180.533 403.222 M 209.713 389.621 C 209.321 390.013, 209 397.008, 209 405.167 L 209 420 212.500 420 L 216 420 216.013 410.750 L 216.026 401.500 221.284 410.500 C 226.019 418.603, 226.865 419.531, 229.772 419.813 L 233 420.127 233 404.563 L 233 389 230.036 389 L 227.072 389 226.786 398.519 L 226.500 408.038 220.951 398.769 C 216.592 391.489, 214.867 389.437, 212.913 389.204 C 211.545 389.041, 210.104 389.229, 209.713 389.621 M 253.667 389.667 C 253.300 390.033, 253 397.008, 253 405.167 L 253 420 255.962 420 L 258.925 420 259.212 410.750 L 259.500 401.500 265 410.726 C 270.137 419.343, 270.716 419.954, 273.776 419.976 L 277.052 420 276.776 404.750 L 276.500 389.500 273.500 389.500 L 270.500 389.500 270.208 398.445 L 269.916 407.391 264.404 398.195 C 260.033 390.904, 258.419 389, 256.612 389 C 255.359 389, 254.033 389.300, 253.667 389.667 M 285.699 389.634 C 285.315 390.019, 285 397.024, 285 405.200 L 285 420.068 295.750 419.784 C 305.973 419.514, 306.515 419.392, 306.814 417.293 C 307.112 415.199, 306.727 415.071, 299.314 414.793 L 291.500 414.500 291.500 411 L 291.500 407.500 296.750 407.198 C 301.538 406.922, 302 406.685, 302 404.500 C 302 402.315, 301.538 402.078, 296.750 401.802 C 291.646 401.508, 291.491 401.411, 291.190 398.293 L 290.880 395.086 298.690 394.793 C 306.276 394.508, 306.500 394.428, 306.500 392 C 306.500 389.518, 306.428 389.498, 296.449 389.217 C 290.922 389.062, 286.084 389.249, 285.699 389.634 M 312.962 390.250 C 312.942 390.938, 314.848 397.933, 317.199 405.796 L 321.473 420.093 324.852 419.796 L 328.231 419.500 332.606 405.500 C 335.012 397.800, 336.985 390.938, 336.990 390.250 C 336.996 389.528, 335.744 389, 334.028 389 C 330.849 389, 330.413 389.937, 326.917 404.267 C 326.277 406.889, 325.432 409.233, 325.039 409.476 C 324.646 409.719, 323.791 407.608, 323.140 404.786 C 322.489 401.964, 321.259 397.258, 320.407 394.328 C 318.991 389.456, 318.607 389, 315.929 389 C 314.273 389, 312.984 389.543, 312.962 390.250 M 344.699 389.634 C 344.315 390.019, 344 397.008, 344 405.167 L 344 420 355 420 L 366 420 366 417.500 C 366 415.056, 365.833 415, 358.500 415 L 351 415 351 411 L 351 407 356 407 C 360.667 407, 361 406.833, 361 404.500 C 361 402.167, 360.667 402, 356 402 L 351 402 351 398.544 L 351 395.088 358.250 394.794 C 365.238 394.511, 365.500 394.410, 365.500 392 C 365.500 389.518, 365.428 389.498, 355.449 389.217 C 349.922 389.062, 345.084 389.249, 344.699 389.634 M 373 404.500 L 373 420 375.952 420 C 378.875 420, 378.908 419.938, 379.202 413.750 C 379.464 408.266, 379.745 407.500, 381.500 407.500 C 382.974 407.500, 384.270 409.143, 386.428 413.750 C 389.144 419.546, 389.594 420, 392.627 420 L 395.898 420 394.338 416.250 C 393.480 414.188, 392.170 411.317, 391.426 409.871 C 390.213 407.513, 390.287 407.051, 392.152 405.371 C 395.307 402.530, 396.228 399.221, 394.947 395.339 C 393.391 390.625, 389.700 389, 380.550 389 L 373 389 373 404.500 M 379 398.500 L 379 402.110 383.750 401.805 C 388.293 401.513, 388.500 401.370, 388.500 398.500 C 388.500 395.630, 388.293 395.487, 383.750 395.195 L 379 394.890 379 398.500 M 187.153 402.306 C 186.539 404.746, 185.755 407.475, 185.411 408.371 C 184.897 409.711, 185.505 410, 188.839 410 L 192.892 410 191.355 404.750 C 189.258 397.584, 188.459 397.120, 187.153 402.306" stroke="none" fill="black" fill-rule="evenodd"/>
</svg>